<?xml version="1.0" encoding="UTF-8"?>
<svg id="Layer_1" data-name="Layer 1" xmlns="http://www.w3.org/2000/svg" viewBox="0 0 200 78.12">
  <defs>
    <style>
      .cls-1 {
        fill: #147dd3;
      }

      .cls-2 {
        fill: #323232;
      }
    </style>
  </defs>
  <path class="cls-2" d="M35.56,36.93c.54,0,1.02-.45,1.02-1.01v-12.24h9.34c.54,0,1.02-.49,1.02-1.04,0-.59-.47-1.04-1.02-1.04H25.2c-.58,0-1.02,.45-1.02,1.04,0,.55,.44,1.04,1.02,1.04h9.34v12.24c0,.55,.44,1.01,1.02,1.01h0Z"/>
  <path class="cls-2" d="M50.14,36.9c.54,0,1.02-.49,1.02-1.04v-6.94h9.64c2.71,0,5.24,1.39,6.73,3.71l2.47,3.78c.2,.31,.54,.49,.85,.49,.2,0,.41-.07,.58-.17,.44-.31,.58-.97,.27-1.46l-2.47-3.78c-.64-1.01-1.46-1.87-2.37-2.57h1.42c1.96,0,3.59-1.66,3.59-3.68s-1.62-3.68-3.59-3.68h-18.14c-.58,0-1.02,.45-1.02,1.01v13.28c0,.55,.44,1.04,1.02,1.04h0Zm1.02-13.28h17.12c.85,0,1.56,.73,1.56,1.63s-.71,1.63-1.56,1.63h-17.12v-3.26Z"/>
  <path class="cls-2" d="M74.5,36.73c.47,.31,1.08,.17,1.42-.31l7.68-11.82c.41-.62,1.08-1.01,1.83-1.01s1.39,.38,1.83,1.01l4.91,7.59h-9.34c-.54,0-.98,.45-.98,1.01,0,.59,.44,1.04,.98,1.04h10.39c.1,0,.17,0,.27-.03l1.46,2.22c.2,.31,.51,.49,.85,.49,.2,0,.41-.07,.58-.17,.44-.31,.58-.97,.27-1.46l-7.72-11.82c-.78-1.21-2.06-1.91-3.49-1.91s-2.71,.69-3.49,1.91l-7.72,11.82c-.3,.49-.17,1.14,.27,1.46h0Z"/>
  <path class="cls-2" d="M120.73,23.62c.58,0,1.02-.45,1.02-1.04,0-.55-.44-1.01-1.02-1.01h-14.82c-3.79,0-6.9,3.16-6.9,7.07v7.21c0,.59,.44,1.04,1.02,1.04,.54,0,1.02-.45,1.02-1.04v-7.21c0-2.77,2.2-5.03,4.87-5.03h14.82Zm0,3.26h-15.53c-.54,0-1.02,.45-1.02,1.01,0,.59,.47,1.04,1.02,1.04h15.53c.58,0,1.02-.45,1.02-1.04,0-.55-.44-1.01-1.02-1.01Z"/>
  <path class="cls-2" d="M145.66,23.62c.58,0,1.02-.45,1.02-1.04,0-.55-.44-1.01-1.02-1.01h-14.82c-3.79,0-6.9,3.16-6.9,7.07v7.21c0,.59,.44,1.04,1.02,1.04,.54,0,1.02-.45,1.02-1.04v-7.21c0-2.77,2.2-5.03,4.87-5.03h14.82Zm0,3.26h-15.53c-.54,0-1.02,.45-1.02,1.01,0,.59,.47,1.04,1.02,1.04h15.53c.58,0,1.02-.45,1.02-1.04,0-.55-.44-1.01-1.02-1.01Z"/>
  <path class="cls-2" d="M149.89,36.9c.54,0,.98-.45,.98-1.04v-13.25c0-.59-.44-1.04-.98-1.04-.58,0-1.02,.45-1.02,1.04v13.25c0,.59,.44,1.04,1.02,1.04Z"/>
  <path class="cls-2" d="M160.55,36.9h14.25c.54,0,1.02-.49,1.02-1.04s-.47-1.04-1.02-1.04h-14.25c-3.01,0-5.48-2.5-5.48-5.58s2.47-5.62,5.48-5.62h14.25c.54,0,1.02-.45,1.02-1.04,0-.55-.47-1.04-1.02-1.04h-14.25c-4.13,0-7.48,3.47-7.48,7.7s3.35,7.66,7.48,7.66h0Z"/>
  <path class="cls-1" d="M39.5,56.38c.47,.31,1.08,.17,1.42-.31l7.68-11.82c.41-.62,1.08-1.01,1.83-1.01s1.39,.38,1.83,1.01l4.91,7.59h-9.34c-.54,0-.98,.45-.98,1.01,0,.59,.44,1.04,.98,1.04h10.39c.1,0,.17,0,.27-.03l1.46,2.22c.2,.31,.51,.49,.85,.49,.2,0,.41-.07,.58-.17,.44-.31,.58-.97,.27-1.46l-7.72-11.82c-.78-1.21-2.06-1.91-3.49-1.91s-2.71,.69-3.49,1.91l-7.72,11.82c-.3,.49-.17,1.14,.27,1.46h0Z"/>
  <path class="cls-1" d="M69.51,56.55h16.21c.54,0,1.02-.45,1.02-1.04,0-.55-.47-1.04-1.02-1.04h-16.21c-1.93,0-3.52-1.6-3.52-3.61v-8.63c0-.55-.44-1.01-1.02-1.01-.54,0-.98,.45-.98,1.01v8.63c0,3.12,2.47,5.69,5.52,5.69h0Z"/>
  <path class="cls-1" d="M110.05,54.47h-14.25c-3.01,0-5.45-2.5-5.45-5.58s2.44-5.62,5.45-5.62h14.25c.58,0,1.02-.45,1.02-1.04,0-.55-.44-1.01-1.02-1.01h-14.25c-4.13,0-7.48,3.43-7.48,7.66s3.35,7.66,7.48,7.66h14.25c.58,0,1.02-.45,1.02-1.04,0-.55-.44-1.04-1.02-1.04h0Zm0-7.94h-15.53c-.54,0-1.02,.45-1.02,1.01,0,.59,.47,1.04,1.02,1.04h15.53c.58,0,1.02-.45,1.02-1.04,0-.55-.44-1.01-1.02-1.01Z"/>
  <path class="cls-1" d="M114.28,56.55c.54,0,1.02-.49,1.02-1.04v-6.94h9.64c2.71,0,5.24,1.39,6.73,3.71l2.47,3.78c.2,.31,.54,.49,.85,.49,.2,0,.41-.07,.58-.17,.44-.31,.58-.97,.27-1.46l-2.47-3.78c-.64-1.01-1.46-1.87-2.37-2.57h1.42c1.96,0,3.59-1.66,3.59-3.68s-1.62-3.68-3.59-3.68h-18.14c-.58,0-1.02,.45-1.02,1.01v13.28c0,.55,.44,1.04,1.02,1.04h0Zm1.02-13.28h17.12c.85,0,1.56,.73,1.56,1.63s-.71,1.63-1.56,1.63h-17.12v-3.26Z"/>
  <path class="cls-1" d="M149.57,56.59c.54,0,1.02-.45,1.02-1.01v-12.24h9.34c.54,0,1.02-.49,1.02-1.04,0-.59-.47-1.04-1.02-1.04h-20.71c-.58,0-1.02,.45-1.02,1.04,0,.55,.44,1.04,1.02,1.04h9.34v12.24c0,.55,.44,1.01,1.02,1.01h0Z"/>
</svg>