<?xml version="1.0" encoding="UTF-8"?>
<svg xmlns="http://www.w3.org/2000/svg" xmlns:xlink="http://www.w3.org/1999/xlink" viewBox="0 0 3710 3710">
  <defs>
    <style>
      .cls-1 {
        fill: url(#linear-gradient-2);
      }

      .cls-2 {
        fill: url(#linear-gradient-51);
      }

      .cls-3, .cls-4, .cls-5 {
        fill: #fff;
      }

      .cls-6 {
        fill: url(#linear-gradient-17);
      }

      .cls-7, .cls-8, .cls-9 {
        fill: #97a6b7;
      }

      .cls-10 {
        fill: url(#linear-gradient-43);
      }

      .cls-11 {
        fill: url(#linear-gradient-15);
      }

      .cls-12 {
        fill: url(#linear-gradient-58);
      }

      .cls-13 {
        opacity: .9;
      }

      .cls-14 {
        fill: url(#linear-gradient-18);
      }

      .cls-15 {
        fill: url(#linear-gradient-56);
      }

      .cls-16 {
        fill: url(#linear-gradient-40);
      }

      .cls-17 {
        fill: url(#linear-gradient-52);
      }

      .cls-18 {
        fill: url(#linear-gradient-28);
      }

      .cls-19 {
        fill: url(#linear-gradient-14);
      }

      .cls-20 {
        fill: url(#linear-gradient-36);
      }

      .cls-21 {
        fill: url(#linear-gradient-20);
      }

      .cls-22 {
        fill: url(#linear-gradient-6);
      }

      .cls-23 {
        fill: url(#linear-gradient-53);
      }

      .cls-24 {
        isolation: isolate;
      }

      .cls-25 {
        fill: url(#linear-gradient-60);
      }

      .cls-4 {
        mix-blend-mode: overlay;
      }

      .cls-4, .cls-26, .cls-27, .cls-28 {
        opacity: .3;
      }

      .cls-29 {
        fill: url(#linear-gradient-35);
      }

      .cls-30 {
        fill: url(#linear-gradient-48);
      }

      .cls-31 {
        fill: url(#linear-gradient-32);
      }

      .cls-32, .cls-33, .cls-9 {
        opacity: .5;
      }

      .cls-32, .cls-34 {
        fill: #f4f7fa;
      }

      .cls-35 {
        fill: url(#linear-gradient-11);
      }

      .cls-36 {
        fill: url(#linear-gradient-50);
      }

      .cls-37 {
        fill: url(#linear-gradient-63);
      }

      .cls-38 {
        fill: url(#linear-gradient-67);
      }

      .cls-39 {
        fill: url(#linear-gradient-66);
      }

      .cls-39, .cls-40, .cls-41, .cls-26, .cls-27, .cls-33, .cls-42, .cls-8, .cls-28, .cls-9 {
        mix-blend-mode: multiply;
      }

      .cls-39, .cls-42 {
        opacity: .6;
      }

      .cls-43 {
        fill: url(#linear-gradient-39);
      }

      .cls-44 {
        fill: url(#linear-gradient);
        opacity: .85;
      }

      .cls-45 {
        fill: url(#linear-gradient-10);
      }

      .cls-5 {
        mix-blend-mode: soft-light;
      }

      .cls-40 {
        fill: url(#linear-gradient-26);
        opacity: .8;
      }

      .cls-46 {
        fill: gray;
      }

      .cls-47 {
        fill: url(#linear-gradient-49);
      }

      .cls-48 {
        fill: url(#linear-gradient-37);
      }

      .cls-49 {
        fill: url(#linear-gradient-16);
      }

      .cls-41, .cls-8 {
        opacity: .1;
      }

      .cls-50 {
        opacity: .75;
      }

      .cls-51 {
        fill: url(#linear-gradient-31);
      }

      .cls-52 {
        fill: url(#linear-gradient-62);
      }

      .cls-53 {
        fill: url(#linear-gradient-41);
      }

      .cls-54 {
        fill: #d8dee8;
      }

      .cls-27 {
        fill: url(#linear-gradient-25);
      }

      .cls-55 {
        fill: url(#linear-gradient-21);
      }

      .cls-56 {
        fill: url(#linear-gradient-5);
      }

      .cls-57 {
        fill: url(#linear-gradient-64);
      }

      .cls-58 {
        fill: url(#linear-gradient-54);
      }

      .cls-59 {
        fill: url(#linear-gradient-45);
      }

      .cls-60 {
        fill: url(#linear-gradient-55);
      }

      .cls-61 {
        fill: url(#linear-gradient-34);
      }

      .cls-62 {
        fill: url(#linear-gradient-65);
      }

      .cls-42 {
        fill: url(#linear-gradient-61);
      }

      .cls-63 {
        fill: url(#linear-gradient-7);
      }

      .cls-64 {
        fill: url(#linear-gradient-24);
      }

      .cls-65 {
        fill: url(#linear-gradient-9);
      }

      .cls-66 {
        fill: url(#linear-gradient-22);
      }

      .cls-67 {
        fill: url(#linear-gradient-42);
      }

      .cls-68 {
        fill: url(#linear-gradient-3);
      }

      .cls-28 {
        fill: url(#linear-gradient-59);
      }

      .cls-69 {
        fill: url(#linear-gradient-27);
      }

      .cls-70 {
        fill: url(#linear-gradient-33);
      }

      .cls-71 {
        fill: url(#linear-gradient-38);
      }

      .cls-72 {
        fill: url(#linear-gradient-29);
      }

      .cls-73 {
        fill: url(#linear-gradient-30);
      }

      .cls-74 {
        fill: url(#linear-gradient-23);
      }

      .cls-75 {
        fill: url(#linear-gradient-19);
      }

      .cls-76 {
        fill: url(#linear-gradient-4);
      }

      .cls-77 {
        fill: url(#linear-gradient-8);
      }

      .cls-78 {
        fill: url(#linear-gradient-44);
      }

      .cls-79 {
        fill: url(#linear-gradient-57);
      }

      .cls-80 {
        fill: url(#linear-gradient-47);
      }

      .cls-81 {
        fill: url(#linear-gradient-46);
      }

      .cls-82 {
        fill: url(#linear-gradient-12);
      }

      .cls-83 {
        fill: url(#linear-gradient-13);
      }
    </style>
    <linearGradient id="linear-gradient" x1="2834.69" y1="3305.42" x2="1536.5" y2="1170.51" gradientUnits="userSpaceOnUse">
      <stop offset="0" stop-color="#85a8ff"/>
      <stop offset="1" stop-color="#e16ffb"/>
    </linearGradient>
    <linearGradient id="linear-gradient-2" x1="2918.59" y1="2589.06" x2="3179.64" y2="3261.47" gradientUnits="userSpaceOnUse">
      <stop offset="0" stop-color="#ffc444"/>
      <stop offset=".31" stop-color="#fba94a"/>
      <stop offset="1" stop-color="#f36f56"/>
    </linearGradient>
    <linearGradient id="linear-gradient-3" x1="2825.11" y1="2625.34" x2="3086.17" y2="3297.76" xlink:href="#linear-gradient-2"/>
    <linearGradient id="linear-gradient-4" x1="2036.05" y1="878.2" x2="2191.52" y2="1278.64" xlink:href="#linear-gradient-2"/>
    <linearGradient id="linear-gradient-5" x1="1980.39" y1="899.81" x2="2135.85" y2="1300.25" xlink:href="#linear-gradient-2"/>
    <linearGradient id="linear-gradient-6" x1="2052.1" y1="2100.56" x2="2868.3" y2="2100.56" gradientUnits="userSpaceOnUse">
      <stop offset="0" stop-color="#444b8c"/>
      <stop offset="1" stop-color="#26264f"/>
    </linearGradient>
    <linearGradient id="linear-gradient-7" x1="2520.24" y1="2129.61" x2="2674.53" y2="2129.61" xlink:href="#linear-gradient-6"/>
    <linearGradient id="linear-gradient-8" x1="2092.06" y1="2073.77" x2="2135.88" y2="2073.77" gradientUnits="userSpaceOnUse">
      <stop offset="0" stop-color="#311944"/>
      <stop offset="1" stop-color="#6b3976"/>
    </linearGradient>
    <linearGradient id="linear-gradient-9" x1="2082.83" x2="2126.65" xlink:href="#linear-gradient-8"/>
    <linearGradient id="linear-gradient-10" x1="2125.51" y1="2076.73" x2="2091.29" y2="2072.13" gradientUnits="userSpaceOnUse">
      <stop offset="0" stop-color="#d8dee8"/>
      <stop offset="1" stop-color="#f4f7fa"/>
    </linearGradient>
    <linearGradient id="linear-gradient-11" x1="2141.74" y1="2081.48" x2="2189.76" y2="2081.48" xlink:href="#linear-gradient-8"/>
    <linearGradient id="linear-gradient-12" x1="2131.63" y1="2081.48" x2="2179.64" y2="2081.48" xlink:href="#linear-gradient-8"/>
    <linearGradient id="linear-gradient-13" x1="2178.4" y1="2084.72" x2="2140.91" y2="2079.68" xlink:href="#linear-gradient-10"/>
    <linearGradient id="linear-gradient-14" x1="2194.81" y1="2085.21" x2="2247.23" y2="2085.21" xlink:href="#linear-gradient-8"/>
    <linearGradient id="linear-gradient-15" x1="2183.77" y1="2085.21" x2="2236.19" y2="2085.21" xlink:href="#linear-gradient-8"/>
    <linearGradient id="linear-gradient-16" x1="2234.83" y1="2088.75" x2="2193.9" y2="2083.24" xlink:href="#linear-gradient-10"/>
    <linearGradient id="linear-gradient-17" x1="2442.41" y1="2120.58" x2="2509.33" y2="2120.58" xlink:href="#linear-gradient-8"/>
    <linearGradient id="linear-gradient-18" x1="2428.31" y1="2120.58" x2="2495.24" y2="2120.58" xlink:href="#linear-gradient-8"/>
    <linearGradient id="linear-gradient-19" x1="2493.5" y1="2125.1" x2="2441.24" y2="2118.06" xlink:href="#linear-gradient-10"/>
    <linearGradient id="linear-gradient-20" x1="2655.8" y1="2145.22" x2="2741.3" y2="2145.22" xlink:href="#linear-gradient-8"/>
    <linearGradient id="linear-gradient-21" x1="2637.79" y1="2145.22" x2="2723.29" y2="2145.22" xlink:href="#linear-gradient-8"/>
    <linearGradient id="linear-gradient-22" x1="2721.08" y1="2150.99" x2="2654.31" y2="2142.01" xlink:href="#linear-gradient-10"/>
    <linearGradient id="linear-gradient-23" x1="2484.71" y1="1754.88" x2="1621.5" y2="2315.79" xlink:href="#linear-gradient-2"/>
    <linearGradient id="linear-gradient-24" x1="3061.89" y1="1632.5" x2="2406.92" y2="2048.99" xlink:href="#linear-gradient-2"/>
    <linearGradient id="linear-gradient-25" x1="2001.91" y1="1865.15" x2="2556.59" y2="1865.15" gradientUnits="userSpaceOnUse">
      <stop offset="0" stop-color="#ffc444"/>
      <stop offset="1" stop-color="#f36f56"/>
    </linearGradient>
    <linearGradient id="linear-gradient-26" x1="2618.75" y1="1885.63" x2="2841.09" y2="1885.63" xlink:href="#linear-gradient-10"/>
    <linearGradient id="linear-gradient-27" x1="2869.1" y1="2069.34" x2="3080.43" y2="2069.34" xlink:href="#linear-gradient-6"/>
    <linearGradient id="linear-gradient-28" x1="2837.32" y1="2066.36" x2="2733.2" y2="2429.11" gradientUnits="userSpaceOnUse">
      <stop offset="0" stop-color="#ff9085"/>
      <stop offset="1" stop-color="#fb6fbb"/>
    </linearGradient>
    <linearGradient id="linear-gradient-29" x1="3095.14" y1="2140.36" x2="2991.02" y2="2503.11" xlink:href="#linear-gradient-28"/>
    <linearGradient id="linear-gradient-30" x1="2785.03" y1="1865.68" x2="3094.39" y2="1865.68" xlink:href="#linear-gradient-6"/>
    <linearGradient id="linear-gradient-31" x1="2275.7" y1="2391.77" x2="3273.25" y2="2391.77" gradientTransform="translate(3853.3) rotate(-180) scale(1 -1)" gradientUnits="userSpaceOnUse">
      <stop offset="0" stop-color="#d8dee8"/>
      <stop offset="1" stop-color="#fff"/>
    </linearGradient>
    <linearGradient id="linear-gradient-32" x1="2275.7" y1="2218.76" x2="3272" y2="2218.76" gradientTransform="translate(3853.3) rotate(-180) scale(1 -1)" xlink:href="#linear-gradient-25"/>
    <linearGradient id="linear-gradient-33" x1="2860.95" y1="2335.07" x2="2858.49" y2="2417.85" xlink:href="#linear-gradient-31"/>
    <linearGradient id="linear-gradient-34" x1="2128.47" x2="2439.1" xlink:href="#linear-gradient-31"/>
    <linearGradient id="linear-gradient-35" x1="2269.2" y1="2591.83" x2="2283.97" y2="2285.38" xlink:href="#linear-gradient-31"/>
    <linearGradient id="linear-gradient-36" x1="2202.36" y1="2283.11" x2="2178.04" y2="2718.7" gradientTransform="translate(3853.3) rotate(-180) scale(1 -1)" gradientUnits="userSpaceOnUse">
      <stop offset="0" stop-color="#e38ddd"/>
      <stop offset="1" stop-color="#9571f6"/>
    </linearGradient>
    <linearGradient id="linear-gradient-37" x1="2342.37" y1="2267.43" x2="2315.57" y2="2747.36" xlink:href="#linear-gradient-36"/>
    <linearGradient id="linear-gradient-38" x1="2641.55" y1="2587.96" x2="2856.36" y2="3115.43" gradientTransform="translate(3603.89) rotate(-180) scale(1 -1)" xlink:href="#linear-gradient-2"/>
    <linearGradient id="linear-gradient-39" x1="2374.54" y1="2788.05" x2="2563.1" y2="2671.1" gradientTransform="translate(3603.89) rotate(-180) scale(1 -1)" xlink:href="#linear-gradient-2"/>
    <linearGradient id="linear-gradient-40" x1="2859.89" y1="2674.95" x2="3011.61" y2="3047.51" gradientTransform="translate(3603.89) rotate(-180) scale(1 -1)" xlink:href="#linear-gradient-2"/>
    <linearGradient id="linear-gradient-41" x1="2671.3" y1="2816.28" x2="2804.48" y2="2733.68" gradientTransform="translate(3603.89) rotate(-180) scale(1 -1)" xlink:href="#linear-gradient-2"/>
    <linearGradient id="linear-gradient-42" x1="2653.54" y1="2754.94" x2="2762.35" y2="3022.13" gradientTransform="translate(3603.89) rotate(-180) scale(1 -1)" xlink:href="#linear-gradient-2"/>
    <linearGradient id="linear-gradient-43" x1="2518.29" y1="2856.3" x2="2613.8" y2="2797.06" gradientTransform="translate(3603.89) rotate(-180) scale(1 -1)" xlink:href="#linear-gradient-2"/>
    <linearGradient id="linear-gradient-44" x1="4437.59" y1="3018.14" x2="4583.47" y2="3018.14" gradientTransform="translate(-2745.11)" xlink:href="#linear-gradient-6"/>
    <linearGradient id="linear-gradient-45" x1="4285.74" y1="2985.56" x2="4364.09" y2="2985.56" gradientTransform="translate(-2745.11)" xlink:href="#linear-gradient-8"/>
    <linearGradient id="linear-gradient-46" x1="4269.24" y1="2985.56" x2="4347.59" y2="2985.56" gradientTransform="translate(-2745.11)" xlink:href="#linear-gradient-8"/>
    <linearGradient id="linear-gradient-47" x1="4659.71" y1="3037.44" x2="4755.69" y2="3037.44" gradientTransform="translate(-2745.11)" xlink:href="#linear-gradient-8"/>
    <linearGradient id="linear-gradient-48" x1="4639.49" y1="3037.44" x2="4735.47" y2="3037.44" gradientTransform="translate(-2745.11)" xlink:href="#linear-gradient-8"/>
    <linearGradient id="linear-gradient-49" x1="4477.96" y1="3069.78" x2="4572.45" y2="3069.78" gradientTransform="translate(-2745.11)" xlink:href="#linear-gradient-8"/>
    <linearGradient id="linear-gradient-50" x1="4458.06" y1="3069.78" x2="4552.55" y2="3069.78" gradientTransform="translate(-2745.11)" xlink:href="#linear-gradient-8"/>
    <linearGradient id="linear-gradient-51" x1="4534.79" y1="3066.3" x2="4491.53" y2="3070.98" gradientTransform="translate(-2745.11)" xlink:href="#linear-gradient-10"/>
    <linearGradient id="linear-gradient-52" x1="4054.05" y1="2977.16" x2="4259.85" y2="2977.16" gradientTransform="translate(-2745.11)" xlink:href="#linear-gradient-6"/>
    <linearGradient id="linear-gradient-53" x1="4131.22" y1="2972.15" x2="4376" y2="2972.15" gradientTransform="translate(-2745.11)" xlink:href="#linear-gradient-6"/>
    <linearGradient id="linear-gradient-54" x1="4102.9" y1="3011.4" x2="4181.25" y2="3011.4" gradientTransform="translate(-2745.11)" xlink:href="#linear-gradient-8"/>
    <linearGradient id="linear-gradient-55" x1="4086.4" y1="3011.4" x2="4164.75" y2="3011.4" gradientTransform="translate(-2745.11)" xlink:href="#linear-gradient-8"/>
    <linearGradient id="linear-gradient-56" x1="4162.48" y1="3016.66" x2="4101.67" y2="3008.48" gradientTransform="translate(-2745.11)" xlink:href="#linear-gradient-10"/>
    <linearGradient id="linear-gradient-57" x1="3983.11" y1="2793.63" x2="4312.08" y2="2793.63" gradientTransform="translate(-2745.11)" xlink:href="#linear-gradient-25"/>
    <linearGradient id="linear-gradient-58" x1="4312.08" y1="2793.63" x2="4563.1" y2="2793.63" gradientTransform="translate(-2745.11)" xlink:href="#linear-gradient-25"/>
    <linearGradient id="linear-gradient-59" x1="3983.11" y1="2797.22" x2="4281.69" y2="2797.22" gradientTransform="translate(-2745.11)" xlink:href="#linear-gradient-25"/>
    <linearGradient id="linear-gradient-60" x1="4343.98" y1="2909.48" x2="4789.95" y2="2909.48" gradientTransform="translate(-2745.11)" xlink:href="#linear-gradient-10"/>
    <linearGradient id="linear-gradient-61" x1="4564.07" y1="2917.46" x2="4358.27" y2="3243.31" gradientTransform="translate(-2745.11)" xlink:href="#linear-gradient-10"/>
    <linearGradient id="linear-gradient-62" x1="4463.09" y1="2830.66" x2="4703.84" y2="2830.66" gradientTransform="translate(-2745.11)" xlink:href="#linear-gradient-6"/>
    <linearGradient id="linear-gradient-63" x1="4711.81" y1="2934.98" x2="4709.48" y2="3072.19" gradientTransform="translate(-2745.11)" xlink:href="#linear-gradient-6"/>
    <linearGradient id="linear-gradient-64" x1="4584.77" y1="2928.26" x2="4654.15" y2="3050.65" gradientTransform="translate(-2745.11)" gradientUnits="userSpaceOnUse">
      <stop offset="0" stop-color="#fcb148"/>
      <stop offset=".05" stop-color="#fdb946"/>
      <stop offset=".14" stop-color="#fec144"/>
      <stop offset=".32" stop-color="#ffc444"/>
      <stop offset=".48" stop-color="#fdb946"/>
      <stop offset=".78" stop-color="#f99c4c"/>
      <stop offset=".87" stop-color="#f8924f"/>
      <stop offset="1" stop-color="#f8924f"/>
    </linearGradient>
    <linearGradient id="linear-gradient-65" x1="4539.31" y1="3030.39" x2="4789.95" y2="3030.39" gradientTransform="translate(-2745.11)" xlink:href="#linear-gradient-6"/>
    <linearGradient id="linear-gradient-66" x1="4605.1" y1="3041.95" x2="4789.95" y2="3041.95" gradientTransform="translate(-2745.11)" xlink:href="#linear-gradient-6"/>
    <linearGradient id="linear-gradient-67" x1="4372.13" y1="2840.85" x2="4485.27" y2="2840.85" gradientTransform="translate(-2745.11)" xlink:href="#linear-gradient-6"/>
  </defs>
  <g class="cls-24">
    <g id="Illustration">
      <path class="cls-32" d="M2582.26,623.29c94.09,135.18-16.23,354.35,123.38,456.02,135.9,98.97,302.84-63.25,430.92,21.94,189.99,126.38,155.3,704.65-122.48,1063.94-83.54,108.05-153.34,150.09-184.25,272.29-66.38,262.4,166.92,418.49,122.52,548.26-99.96,292.21-1637.34,537.41-2254.21-340.78-288.1-410.15-331.21-1002.41-73.8-1452.24,465.14-812.83,1746.82-872.77,1957.93-569.44Z"/>
      <g class="cls-50">
        <polygon class="cls-54" points="2409.97 2506.93 2406.97 2505.76 1109.27 2000.14 1113.23 1996.44 1957.34 1206.91 1281.3 683.12 1285.47 677.74 1967.84 1206.43 1964.92 1209.16 1121.85 1997.72 2406.46 2498.24 2852.39 1529.74 1970.16 1211.33 1972.48 1204.91 2861.69 1525.84 2860.14 1529.22 2409.97 2506.93"/>
        <rect class="cls-54" x="629.86" y="2030.73" width="488.25" height="6.82" transform="translate(-283.98 147.16) rotate(-8.28)"/>
        <polygon class="cls-54" points="2116.6 2860.79 2111.34 2856.45 2407.07 2498.62 2675.6 2586.85 2673.47 2593.33 2409.36 2506.55 2116.6 2860.79"/>
        <polygon class="cls-54" points="2397.62 2487.97 1958.92 1206.47 1959.5 1205.23 2233.11 621.18 2239.28 624.07 1966.27 1206.87 2404.08 2485.76 2397.62 2487.97"/>
        <polygon class="cls-54" points="3155.39 1682.96 2850.49 1528.3 3154.95 1309.9 3158.92 1315.45 2863.59 1527.29 3158.48 1676.88 3155.39 1682.96"/>
        <circle class="cls-54" cx="1962.59" cy="1206.67" r="30.22"/>
        <circle class="cls-54" cx="2857.04" cy="1527.79" r="30.22"/>
        <circle class="cls-54" cx="2404.72" cy="2500.17" r="30.22"/>
        <circle class="cls-54" cx="1115.56" cy="1998.93" r="30.22"/>
        <circle class="cls-54" cx="681.64" cy="1363.81" r="30.22"/>
        <circle class="cls-54" cx="1491.19" cy="841.44" r="30.22"/>
        <circle class="cls-54" cx="2209.87" cy="680.43" r="30.22"/>
        <circle class="cls-54" cx="2805.11" cy="2390.33" r="30.22"/>
        <polygon class="cls-54" points="2808.52 2565.48 2801.7 2565.48 2801.7 2391.47 3065.27 2286.02 3067.81 2292.35 2808.52 2396.08 2808.52 2565.48"/>
        <polygon class="cls-54" points="1116.66 1999.8 635.31 1302.72 640.92 1298.84 1114.45 1984.59 1488.55 838.53 2201.85 679.68 2080.37 553.7 2085.28 548.96 2215.2 683.69 1493.83 844.34 1116.66 1999.8"/>
        <rect class="cls-54" x="326.18" y="1622.2" width="548.28" height="6.82" transform="translate(-1130.21 1716.35) rotate(-72.73)"/>
        <polygon class="cls-54" points="568.96 1414.52 566.33 1408.22 680.05 1360.77 1488.59 839.05 1642.17 549.73 1648.2 552.93 1493.79 843.82 1493.04 844.3 683.23 1366.84 568.96 1414.52"/>
        <rect class="cls-54" x="1101.49" y="1762.54" width="1779.32" height="6.82" transform="translate(-383.82 564.8) rotate(-14.74)"/>
        <polygon class="cls-54" points="2795.26 2387.36 1116.9 1996.01 912.24 2256.43 906.88 2252.21 1114.22 1988.38 2796.82 2380.72 2795.26 2387.36"/>
        <path class="cls-54" d="M2401.76,2504.49l-195.76-1814.44L1118.18,1994.38l-5.24-4.37L2204.16,681.6l-.85-1.11,3.05-1.53,4.69-5.63,.34,3.1,191.8-96.46,3.06,6.1-192.52,96.82,646.78,843.85-.08,1.27-52.08,868.44-406.61,108.04Zm-188.54-1811.07l194.47,1802.43,394.16-104.74,51.71-862.25-640.34-835.44Z"/>
      </g>
      <path class="cls-44" d="M1628.55,2315.27h953.1c366.13,0,597.94-110.48,516.75-246.27l-13.95-23.32c-81.19-135.79-445.11-246.27-811.23-246.27h-953.1c-194.45,0-387.73-58.67-430.85-130.79-43.12-72.12,80-130.79,274.44-130.79h953.1c366.13,0,841.69-110.48,760.49-246.27l-126.67-211.86c-19.07-31.89-104.22-57.74-190.19-57.74s-140.22,25.85-121.15,57.74l126.67,211.86c43.12,72.12-323.74,130.79-518.19,130.79h-953.1c-366.13,0-597.94,110.48-516.75,246.27,81.19,135.79,445.11,246.27,811.23,246.27h953.1c194.45,0,387.73,58.67,430.85,130.79l13.95,23.32c43.12,72.12-80,130.79-274.44,130.79h-953.1c-366.13,0-597.94,110.48-516.75,246.27,81.19,135.79,445.11,246.27,811.23,246.27l94.49,1.71c194.45,0,314.25,58.67,357.37,130.79l57.72,96.54h-174.73l419.54,149.07,241.28-149.07h-174.73l-57.72-96.54c-81.19-135.79-371.63-246.27-737.76-246.27l-94.49-1.71c-194.45,0-387.73-58.67-430.85-130.79-43.12-72.12,80-130.79,274.44-130.79Z"/>
      <g class="cls-13">
        <g>
          <path class="cls-1" d="M3211.25,2683.17c0,110.77-155.18,312.9-225.41,398.7-17.48,21.35-50.15,21.35-67.62,0-70.23-85.8-225.41-287.93-225.41-398.7,0-143.16,116.06-259.22,259.22-259.22s259.22,116.06,259.22,259.22Z"/>
          <circle class="cls-3" cx="2952.03" cy="2683.17" r="144.57" transform="translate(-1032.66 2873.28) rotate(-45)"/>
          <g class="cls-26">
            <path class="cls-68" d="M2950.88,2975.44c16.45-108.31,87.97-142.97,75.69-245.24-14.16-117.94-118.59-149.35-121.11-254.32-.41-16.9,1.89-33.2,6.23-48.8-124.01,19.37-218.89,126.65-218.89,256.09,0,110.77,155.18,312.9,225.41,398.7,10.29,12.57,25.84,17.73,40.45,15.5-12.57-47.44-12.95-87.95-7.79-121.93Z"/>
          </g>
        </g>
        <g>
          <g>
            <g>
              <rect class="cls-9" x="2741.1" y="790.43" width="64.01" height="12.57"/>
              <rect class="cls-9" x="2741.1" y="946.68" width="64.01" height="12.57"/>
              <rect class="cls-9" x="2741.1" y="1102.93" width="64.01" height="12.57"/>
              <g>
                <polygon class="cls-7" points="2675.86 705.45 2675.86 1461.57 2573.97 1438.65 2573.97 777.23 2675.86 705.45"/>
                <rect class="cls-54" x="2675.86" y="707.24" width="318.73" height="754.32"/>
                <g>
                  <rect class="cls-7" x="2733.34" y="797.04" width="62.7" height="118.54"/>
                  <rect class="cls-7" x="2819.55" y="797.04" width="64.01" height="118.54"/>
                  <rect class="cls-7" x="2907.07" y="797.04" width="62.7" height="118.54"/>
                  <rect class="cls-7" x="2733.34" y="953.3" width="62.7" height="118.54"/>
                  <rect class="cls-7" x="2819.55" y="953.3" width="64.01" height="118.54"/>
                  <rect class="cls-7" x="2907.07" y="953.3" width="62.7" height="118.54"/>
                  <rect class="cls-7" x="2733.34" y="1109.55" width="62.7" height="118.54"/>
                  <rect class="cls-7" x="2819.55" y="1109.55" width="64.01" height="118.54"/>
                  <rect class="cls-7" x="2907.07" y="1109.55" width="62.7" height="118.54"/>
                  <rect class="cls-7" x="2733.34" y="1265.8" width="62.7" height="118.54"/>
                  <rect class="cls-7" x="2819.55" y="1265.8" width="64.01" height="118.54"/>
                  <rect class="cls-7" x="2907.07" y="1265.8" width="62.7" height="118.54"/>
                </g>
                <rect class="cls-9" x="2733.34" y="797.04" width="62.7" height="12.57"/>
                <rect class="cls-9" x="2733.34" y="953.3" width="62.7" height="12.57"/>
                <rect class="cls-9" x="2733.34" y="1109.55" width="62.7" height="12.57"/>
                <rect class="cls-9" x="2733.34" y="1265.8" width="62.7" height="12.57"/>
                <path class="cls-8" d="M2994.59,1449.05v12.52h-318.73l-101.89-22.92v-111.93c6.82-23.87,15.05-47.11,24.82-66.31,37.45-73.64,25.25-103.58,33.09-157.46,7.84-53.88-9.58-346.02,43.98-395.72,50.07,83.21,46.59,79.62,48.33,168.23,.93,47.4,.86,89.32,9.14,120.44,7.18,27.05,20.68,45.92,46.59,53.16,5.45,1.53,10.83,3.95,16.11,7.2,16.85,10.33,32.7,28.99,46.12,53.27,17.66,31.88,31.21,73.44,37.52,118.54,1.74,12.34,2.93,24.96,3.5,37.72,.2,4.24,.33,8.51,.38,12.79,.05,3.72,.05,7.44,0,11.15-.03,1.31-.03,2.6,0,3.88,.25,32.22,9.91,54.44,23.51,71.48,5.76,7.22,12.23,13.51,18.99,19.24,27.03,22.88,58.72,36.69,68.53,64.71Z"/>
              </g>
            </g>
            <g>
              <polygon class="cls-7" points="2379.86 776.41 2379.86 1332.09 2291.04 1315.26 2291.04 829.18 2371.82 781.19 2378.84 777.01 2379.86 776.41"/>
              <rect class="cls-34" x="2379.86" y="775.86" width="246.89" height="556.23"/>
              <rect class="cls-7" x="2426.89" y="837.3" width="31.35" height="458.27"/>
              <rect class="cls-7" x="2492.2" y="837.3" width="32.66" height="458.27"/>
              <rect class="cls-7" x="2557.52" y="837.3" width="32.66" height="458.27"/>
              <rect class="cls-9" x="2447.79" y="837.3" width="10.45" height="458.27"/>
              <rect class="cls-9" x="2514.41" y="837.3" width="10.45" height="458.27"/>
              <rect class="cls-9" x="2581.03" y="837.3" width="10.45" height="458.27"/>
              <path class="cls-8" d="M2626.75,1332.06v.03h-246.89l-88.83-16.84v-56.54c41.15-62.96,27.6-89.15,36.48-135.85,8.67-45.59-9.63-285.84,44.3-341.67,1.95-2.04,3.98-3.82,6.13-5.33,.3,.38,.6,.76,.9,1.15,.34,.43,.68,.86,1.02,1.3,28.06,35.68,40.91,52.72,47.03,70.83,5.96,17.65,5.51,36.31,6.48,74.25,1.2,46.66,.95,87.25,14.42,115.2,2.82,5.89,6.26,11.21,10.45,15.91,8.14,9.15,19.11,15.94,33.96,19.91,1.65,.45,3.33,.86,5.07,1.23,5.79,1.23,11.51,3.15,17.14,5.69,3.53,1.58,7.01,3.4,10.45,5.48,11.53,6.89,22.55,16.35,32.66,27.86,8.54,9.71,16.45,20.87,23.51,33.14,3.23,5.61,6.28,11.46,9.14,17.52,.44,.93,.87,1.86,1.31,2.81,15.99,34.93,25.47,76.36,24.64,118.53-.37,18.36,3.71,33.14,10.63,45.39Z"/>
            </g>
            <g>
              <g>
                <rect class="cls-34" x="2105.38" y="1219.07" width="528.31" height="241.71"/>
                <g class="cls-41">
                  <path class="cls-7" d="M2534.23,1373.89c-39.71-12.09-87.36-6.05-119.13-24.19-97.66-42.48-199.5-122.25-309.72-128.76v239.83h528.31v-23.51c-32.04-23.67-63.49-47.4-99.46-63.37Z"/>
                </g>
                <polygon class="cls-7" points="2108.83 1459.68 2019.58 1435.37 2019.58 1249.87 2106.63 1219.93 2108.83 1459.68"/>
              </g>
              <rect class="cls-7" x="2465.41" y="1362.11" width="108.71" height="98.52"/>
              <rect class="cls-9" x="2563.67" y="1362.11" width="10.45" height="98.52"/>
              <rect class="cls-7" x="2263.21" y="1362.11" width="108.71" height="98.52"/>
              <rect class="cls-9" x="2359.76" y="1362.11" width="10.45" height="98.52"/>
            </g>
          </g>
          <g>
            <path class="cls-76" d="M2210.34,934.24c0,65.97-92.42,186.34-134.24,237.44-10.41,12.72-29.86,12.72-40.27,0-41.82-51.1-134.24-171.47-134.24-237.44,0-85.26,69.12-154.37,154.37-154.37s154.37,69.12,154.37,154.37Z"/>
            <circle class="cls-3" cx="2055.97" cy="934.24" r="86.1" transform="translate(674.35 2720.57) rotate(-76.72)"/>
            <g class="cls-26">
              <path class="cls-56" d="M2055.29,1108.3c9.79-64.5,52.39-85.14,45.08-146.05-8.43-70.24-70.62-88.94-72.12-151.46-.24-10.06,1.13-19.77,3.71-29.06-73.85,11.54-130.36,75.42-130.36,152.51,0,65.97,92.42,186.34,134.24,237.44,6.13,7.48,15.39,10.56,24.09,9.23-7.48-28.25-7.71-52.38-4.64-72.62Z"/>
            </g>
          </g>
        </g>
        <g>
          <path class="cls-22" d="M2052.1,2009.21v59.65c0,5.55,4.2,10.2,9.72,10.76l610.75,57.88,82.21,54.4,113.52-151-816.2-31.69Z"/>
          <path class="cls-63" d="M2520.24,2091.2v53.39c0,4.48,3.25,8.29,7.67,9l146.63,23.55-4.26-86.07-140.34-8.97c-5.25-.34-9.7,3.83-9.7,9.1Z"/>
          <g>
            <path class="cls-77" d="M2113.97,2036.73c-.5,0-.99,.04-1.48,.09l-7.75-.09,.05,3.41c-7.51,5.87-12.73,18.72-12.73,33.63s5.63,28.77,13.63,34.29l.04,2.75h8.25c12.1,0,21.91-16.58,21.91-37.04s-9.81-37.04-21.91-37.04Z"/>
            <ellipse class="cls-65" cx="2104.74" cy="2073.77" rx="21.91" ry="37.04"/>
            <ellipse class="cls-54" cx="2101.66" cy="2073.77" rx="12.31" ry="20.81"/>
            <ellipse class="cls-45" cx="2103.52" cy="2073.77" rx="10.45" ry="19.32"/>
          </g>
          <g>
            <path class="cls-35" d="M2165.75,2040.9c-.54,0-1.08,.04-1.62,.1l-8.5-.1,.05,3.74c-8.23,6.44-13.94,20.51-13.94,36.84s6.17,31.52,14.93,37.57l.04,3.01h9.04c13.26,0,24.01-18.17,24.01-40.58s-10.75-40.58-24.01-40.58Z"/>
            <ellipse class="cls-82" cx="2155.64" cy="2081.48" rx="24.01" ry="40.58"/>
            <ellipse class="cls-54" cx="2152.26" cy="2081.48" rx="13.49" ry="22.8"/>
            <ellipse class="cls-83" cx="2154.3" cy="2081.48" rx="11.45" ry="21.17"/>
          </g>
          <g>
            <path class="cls-19" d="M2221.02,2040.9c-.59,0-1.18,.05-1.77,.11l-9.28-.11,.05,4.08c-8.99,7.03-15.22,22.39-15.22,40.23s6.74,34.41,16.3,41.02l.04,3.29h9.87c14.48,0,26.21-19.84,26.21-44.31s-11.74-44.31-26.21-44.31Z"/>
            <ellipse class="cls-11" cx="2209.98" cy="2085.21" rx="26.21" ry="44.31"/>
            <ellipse class="cls-54" cx="2206.3" cy="2085.21" rx="14.73" ry="24.89"/>
            <path class="cls-49" d="M2221.02,2085.21c0,12.76-5.6,23.11-12.5,23.11s-12.5-10.35-12.5-23.11,5.6-23.11,12.5-23.11,12.5,10.35,12.5,23.11Z"/>
          </g>
          <g>
            <path class="cls-6" d="M2475.87,2064.01c-.76,0-1.51,.06-2.26,.14l-11.84-.14,.07,5.21c-11.47,8.97-19.44,28.58-19.44,51.35s8.6,43.93,20.81,52.37l.06,4.2h12.6c18.48,0,33.46-25.33,33.46-56.57s-14.98-56.57-33.46-56.57Z"/>
            <ellipse class="cls-14" cx="2461.77" cy="2120.58" rx="33.46" ry="56.57"/>
            <ellipse class="cls-54" cx="2457.07" cy="2120.58" rx="18.8" ry="31.78"/>
            <ellipse class="cls-75" cx="2459.91" cy="2120.58" rx="15.96" ry="29.5"/>
          </g>
          <g>
            <path class="cls-21" d="M2698.55,2072.95c-.97,0-1.93,.07-2.88,.18l-15.13-.18,.09,6.66c-14.66,11.46-24.83,36.52-24.83,65.61s10.99,56.12,26.58,66.9l.07,5.36h16.1c23.61,0,42.75-32.35,42.75-72.26s-19.14-72.27-42.75-72.27Z"/>
            <ellipse class="cls-55" cx="2680.54" cy="2145.22" rx="42.75" ry="72.26"/>
            <ellipse class="cls-54" cx="2674.53" cy="2145.22" rx="24.02" ry="40.6"/>
            <ellipse class="cls-66" cx="2678.17" cy="2145.22" rx="20.38" ry="37.69"/>
          </g>
          <path class="cls-74" d="M2015.77,1691.69c-8,1.33-13.86,8.25-13.86,16.36v302.38c0,8.8,6.87,16.06,15.66,16.55l568.35,31.71v-461.79l-570.14,94.8Z"/>
          <path class="cls-64" d="M2906.41,1607.67l-320.5-10.78v461.79h337.74v-433.19c0-9.62-7.62-17.5-17.23-17.82Z"/>
          <path class="cls-27" d="M2465.83,1942.6c-72.99-33.62-141.49,17.69-208.27-31.9-58.48-43.43-39.63-107.79-86.31-183.88-10.69-17.42-25.01-35.71-44.57-53.58l-110.91,18.44c-8,1.33-13.86,8.25-13.86,16.36v302.38c0,8.8,6.87,16.06,15.66,16.55l539.03,30.07c-24.74-67.67-58.35-99.51-90.77-114.44Z"/>
          <path class="cls-34" d="M3094.39,1912.58l-23.69-59.57-.7-49.25,23.93-4.79c2.32-.46,3.78-2.76,3.21-5.06-3.62-14.52-16.86-62.5-37.46-78.35-14.52-11.17-289.89-14.51-289.89-14.51l-132.54,8.62c-10.41,.68-18.51,9.32-18.51,19.75v293.69c0,7.71,5.89,14.13,13.57,14.8l90.98,7.89,18.01,18.21s257.86,20.65,360.77,1.88c5.33-.97,9.21-5.58,9.21-11v-129.18c0-18.76-16.89-13.14-16.89-13.14Z"/>
          <path class="cls-40" d="M2814.82,1930.41s-2.81-127.59,0-180.13c1.36-25.48-11.4-40.35-24.91-48.93-12.59-.2-20.13-.29-20.13-.29l-132.54,8.62c-10.41,.68-18.51,9.32-18.51,19.75v293.69c0,7.71,5.89,14.13,13.57,14.8l90.98,7.89,18.01,18.21s42.46,3.4,99.79,6.19v-108.83l-26.27-30.96Z"/>
          <path class="cls-7" d="M3108.34,2088.78l-10.2-3.57v-20.67c0-5.57-4.52-10.09-10.09-10.09h-319.33c-7.7,0-13.95,6.24-13.95,13.95v123.5c0,6.79,5.65,12.23,12.44,11.97l341.93-13.15c6.43-.25,11.52-5.53,11.52-11.97v-72.61c0-7.82-4.94-14.78-12.32-17.36Z"/>
          <path class="cls-69" d="M3069.43,1982.67h-189.34c-6.38,0-11.41,5.4-10.97,11.76l10.43,148.66c.52,7.47,6.86,13.18,14.35,12.93l162.67-5.51c7.1-.24,12.89-5.8,13.4-12.89l10.43-143.15c.46-6.37-4.58-11.8-10.97-11.8Z"/>
          <g class="cls-26">
            <path class="cls-7" d="M3108.34,2088.78l-10.2-3.57v-20.67c0-4.4-2.83-8.14-6.76-9.51l-19.43,91.37c-2.31,10.88-11.72,18.8-22.84,19.24l-149.24,5.8c-10.7,.42-20.41-6.22-23.92-16.33l-34.88-100.65h-72.36c-7.7,0-13.95,6.24-13.95,13.95v123.5c0,6.79,5.65,12.23,12.44,11.97l341.93-13.15c6.43-.25,11.52-5.53,11.52-11.97v-72.61c0-7.82-4.94-14.78-12.32-17.36Z"/>
          </g>
          <path class="cls-18" d="M2857.04,2163.07l-35.51,1.78c-22.05,1.1-40.99-15.48-42.81-37.48l-1.43-17.26h71.09c4.78,0,8.66,3.88,8.66,8.66v44.31Z"/>
          <path class="cls-72" d="M3086.1,2117.41l-5.67,38.61s37.43-1.31,36.5-48.5l-23.23,2.55c-3.91,.43-7.03,3.44-7.6,7.33Z"/>
          <path class="cls-46" d="M2822.94,1931.03c-5.54,0-11.02-1.79-15.49-5.06l-14.61-10.7c-5.37-3.94-8.58-10.26-8.58-16.92v-85.05c0-3.83,1.68-7.45,4.61-9.92,2.93-2.46,6.79-3.51,10.55-2.86l14.32,2.47h256.87s.14,.59,.14,.59l24.43,108.98-.03,.16-2.7,13.51h-.62s-268.43,4.78-268.43,4.78c-.15,0-.31,0-.46,0Zm-25.73-129.15c-2.67,0-5.27,.94-7.34,2.68-2.58,2.17-4.07,5.36-4.07,8.74v85.05c0,6.17,2.97,12.03,7.95,15.67l14.61,10.7c4.21,3.08,9.37,4.77,14.58,4.77,.14,0,.29,0,.43,0l267.81-4.76,2.42-12.13-24.22-108.06h-255.77l-14.45-2.48c-.65-.11-1.3-.17-1.95-.17Z"/>
          <path class="cls-73" d="M3070,1803.75h-256.39l-14.32-2.47c-7.45-1.28-14.26,4.45-14.26,12.01v85.05c0,6.44,3.07,12.49,8.26,16.29l14.61,10.7c4.48,3.28,9.92,5.01,15.48,4.91l268.42-4.77,2.58-12.9-24.39-108.83Z"/>
          <g>
            <rect class="cls-7" x="2882.84" y="1774.2" width="33.77" height="21.11" rx="5.98" ry="5.98"/>
            <rect class="cls-7" x="3010.9" y="1774.2" width="33.77" height="21.11" rx="5.98" ry="5.98"/>
          </g>
          <path class="cls-4" d="M2989.79,1864.27c-66.16-25.3-128.4,6.23-156.91-28.14-7.71-9.3-10.82-20.86-11.54-32.37h-7.72l-14.32-2.47c-7.45-1.28-14.26,4.45-14.26,12.01v85.05c0,6.44,3.07,12.49,8.26,16.29l14.61,10.7c4.48,3.28,9.92,5.01,15.48,4.91l243.15-4.32c-27.49-37.05-55.4-53.5-76.75-61.66Z"/>
        </g>
        <g>
          <g>
            <polygon class="cls-51" points="581.31 2289.4 580.06 2621.3 1414.21 2635.43 1577.6 2148.11 773.5 2182.73 776.63 2196.8 581.31 2289.4"/>
            <polygon class="cls-31" points="581.31 2289.4 775.06 2175.96 1577.6 2148.11 1399.28 2262.89 581.31 2289.4"/>
            <polygon class="cls-70" points="567.8 2317.15 1413.99 2282.26 1413.99 2254.32 567.65 2289.68 567.8 2317.15"/>
            <g>
              <polygon class="cls-61" points="1577.6 2148.11 1722.31 2288.52 1724.83 2597.79 1414.21 2635.43 1414.23 2254.32 1577.6 2148.11"/>
              <polygon class="cls-29" points="1413.99 2285.8 1578.42 2170.49 1725 2309.05 1724.87 2288.89 1577.74 2148.17 1413.99 2254.32 1413.99 2285.8"/>
              <g>
                <g>
                  <polygon class="cls-3" points="1697.21 2545.24 1695.44 2306.35 1621.26 2299.34 1622.63 2551.45 1697.21 2545.24"/>
                  <polygon class="cls-20" points="1627.7 2541.45 1691.98 2537.12 1690.36 2314.59 1626.4 2308.72 1627.7 2541.45"/>
                  <polygon class="cls-3" points="1662.41 2547.92 1660.81 2303 1654.42 2302.36 1655.98 2548.37 1662.41 2547.92"/>
                  <g>
                    <polygon class="cls-3" points="1622.21 2474.02 1696.67 2471.89 1696.6 2463.21 1622.16 2464.85 1622.21 2474.02"/>
                    <polygon class="cls-3" points="1621.72 2383.87 1696.03 2386.47 1695.97 2377.82 1621.67 2374.75 1621.72 2383.87"/>
                  </g>
                </g>
                <g>
                  <polygon class="cls-3" points="1565.25 2555.74 1564.21 2293.78 1472.61 2284.9 1473.02 2562.8 1565.25 2555.74"/>
                  <polygon class="cls-48" points="1481.8 2552.27 1558.86 2546.87 1557.94 2302.74 1481.36 2295.79 1481.8 2552.27"/>
                  <polygon class="cls-3" points="1524.69 2558.97 1523.92 2289.91 1516.39 2289.18 1517.11 2559.55 1524.69 2558.97"/>
                  <g>
                    <polygon class="cls-3" points="1472.9 2477.41 1564.93 2475.27 1564.89 2465.75 1472.88 2467.31 1472.9 2477.41"/>
                    <polygon class="cls-3" points="1472.75 2378.04 1564.56 2381.6 1564.52 2372.12 1472.73 2367.98 1472.75 2378.04"/>
                  </g>
                </g>
              </g>
            </g>
            <g>
              <polygon class="cls-3" points="986.64 2380.76 985.44 2626.38 1262.63 2629.85 1265.26 2375.32 986.64 2380.76"/>
              <polygon class="cls-7" points="992.85 2388.92 991.66 2626.45 1254.62 2629.75 1257.12 2384.04 992.85 2388.92"/>
              <polygon class="cls-54" points="975.31 2398.87 1275.82 2393.71 1276.17 2360.8 975.46 2367.21 975.31 2398.87"/>
              <polygon class="cls-3" points="978.93 2424.95 1271.5 2420.92 1271.79 2393.78 979.06 2398.81 978.93 2424.95"/>
              <g class="cls-33">
                <polygon class="cls-54" points="979.02 2407.06 1271.7 2402.35 1271.74 2398.06 979.04 2402.94 979.02 2407.06"/>
                <polygon class="cls-54" points="978.97 2416.7 1271.59 2412.35 1271.64 2408.06 978.99 2412.57 978.97 2416.7"/>
              </g>
            </g>
            <g>
              <polygon class="cls-3" points="632.41 2387.68 632.9 2621.96 884.75 2625.11 885.45 2382.74 632.41 2387.68"/>
              <polygon class="cls-7" points="638.12 2395.46 638.56 2622.03 878.7 2625.04 879.34 2391.01 638.12 2395.46"/>
              <polygon class="cls-54" points="622.22 2404.94 896.37 2400.23 896.47 2368.89 622.15 2374.74 622.22 2404.94"/>
              <polygon class="cls-3" points="626.82 2429.8 891.41 2426.15 891.49 2400.31 626.76 2404.86 626.82 2429.8"/>
              <g class="cls-33">
                <polygon class="cls-54" points="627.63 2412.67 891.86 2408.44 892.07 2404.34 627.62 2408.73 627.63 2412.67"/>
                <polygon class="cls-54" points="627.65 2421.85 891.83 2417.96 892.05 2413.86 627.64 2417.92 627.65 2421.85"/>
              </g>
            </g>
          </g>
          <g>
            <g>
              <polygon class="cls-71" points="768.88 2834.11 1056.16 2848 1056.16 2558.7 768.88 2572.59 768.88 2834.11"/>
              <polygon class="cls-43" points="1056.16 2848 1159.18 2828.2 1159.18 2577.17 1056.16 2558.7 1056.16 2848"/>
              <polygon class="cls-5" points="964.07 2563.62 964.07 2608.85 887.16 2612.21 887.16 2568.27 964.07 2563.62"/>
              <polygon class="cls-5" points="1137.13 2573.22 1093.98 2565.48 1093.98 2610.03 1137.13 2614.71 1137.13 2573.22"/>
            </g>
            <g>
              <polygon class="cls-16" points="607.36 2848.81 810.27 2858.62 810.27 2654.29 607.36 2664.1 607.36 2848.81"/>
              <polygon class="cls-53" points="810.27 2858.62 883.03 2844.64 883.03 2667.33 810.27 2654.29 810.27 2858.62"/>
              <polygon class="cls-5" points="745.22 2657.76 745.22 2689.71 690.91 2692.08 690.91 2661.05 745.22 2657.76"/>
              <polygon class="cls-5" points="867.46 2664.54 836.98 2659.08 836.98 2690.54 867.46 2693.85 867.46 2664.54"/>
            </g>
            <g>
              <polygon class="cls-67" points="852.36 2879.63 997.88 2886.67 997.88 2740.12 852.36 2747.16 852.36 2879.63"/>
              <polygon class="cls-10" points="997.88 2886.67 1050.06 2876.64 1050.06 2749.48 997.88 2740.12 997.88 2886.67"/>
              <polygon class="cls-5" points="951.23 2742.61 951.23 2765.52 912.27 2767.23 912.27 2744.97 951.23 2742.61"/>
              <polygon class="cls-5" points="1038.89 2747.48 1017.04 2743.56 1017.04 2766.12 1038.89 2768.49 1038.89 2747.48"/>
            </g>
          </g>
          <g>
            <polygon class="cls-78" points="1704.95 3064.14 1838.36 3058.68 1801.42 2972.15 1715.48 2977.22 1692.48 3014.83 1704.95 3064.14"/>
            <g>
              <path class="cls-59" d="M1579.81,2926.59c-.89,0-1.77,.06-2.64,.15l-13.86-.15,.08,5.43c-13.43,9.35-22.75,29.8-22.75,53.54s10.07,45.8,24.36,54.6l.07,4.38h14.75c21.63,0,39.17-26.4,39.17-58.97s-17.54-58.97-39.17-58.97Z"/>
              <ellipse class="cls-81" cx="1563.31" cy="2985.56" rx="39.17" ry="58.97"/>
            </g>
            <g>
              <path class="cls-80" d="M1962.59,2971.37c-1.09,0-2.16,.07-3.23,.17l-16.98-.17,.1,6.09c-16.45,10.48-27.87,33.38-27.87,59.98s12.34,51.31,29.84,61.16l.08,4.9h18.07c26.5,0,47.99-29.58,47.99-66.07s-21.49-66.07-47.99-66.07Z"/>
              <ellipse class="cls-30" cx="1942.38" cy="3037.44" rx="47.99" ry="66.07"/>
            </g>
            <g>
              <path class="cls-47" d="M1780.1,3002.05c-1.07,0-2.13,.07-3.18,.17l-16.72-.17,.1,6.24c-16.2,10.74-27.44,34.23-27.44,61.49s12.15,52.6,29.38,62.7l.08,5.03h17.79c26.09,0,47.24-30.32,47.24-67.73s-21.15-67.73-47.24-67.73Z"/>
              <ellipse class="cls-36" cx="1760.2" cy="3069.78" rx="47.24" ry="67.73"/>
              <ellipse class="cls-54" cx="1753.56" cy="3069.78" rx="26.54" ry="38.05"/>
              <ellipse class="cls-2" cx="1757.57" cy="3069.78" rx="22.53" ry="35.33"/>
            </g>
            <path class="cls-17" d="M1308.94,2926.59v70.5c0,18.4,16.11,32.66,34.38,30.41l171.43-21.05v-79.86h-205.8Z"/>
            <path class="cls-23" d="M1386.12,2916.8l47.06,73.14c6.73,10.46,17.77,17.37,30.11,18.85l155.69,18.71,11.91-78.73-244.78-31.96Z"/>
            <g>
              <path class="cls-58" d="M1396.97,2952.43c-.89,0-1.77,.06-2.64,.15l-13.86-.15,.08,5.43c-13.43,9.35-22.75,29.8-22.75,53.54s10.07,45.8,24.36,54.6l.07,4.38h14.75c21.63,0,39.17-26.4,39.17-58.97s-17.54-58.97-39.17-58.97Z"/>
              <ellipse class="cls-60" cx="1380.47" cy="3011.4" rx="39.17" ry="58.97"/>
              <ellipse class="cls-54" cx="1374.96" cy="3011.4" rx="22.01" ry="33.13"/>
              <ellipse class="cls-15" cx="1378.29" cy="3011.4" rx="18.68" ry="30.76"/>
            </g>
            <path class="cls-79" d="M1566.97,2972.15l-319.79-44.29c-5.26-.73-9.18-5.23-9.18-10.54v-281.75c0-5.75,4.57-10.46,10.31-10.64l318.66-9.82v357.03Z"/>
            <path class="cls-12" d="M1817.99,2952.43l-251.02,19.72v-357.03l238.55,12.59c6.99,.37,12.47,6.14,12.47,13.14v311.58Z"/>
            <path class="cls-28" d="M1451.6,2751.81c-46.48-58.59-138.89-15.36-185.53-81.07-10.51-14.81-17.83-29.92-22.92-44.23-3.08,1.87-5.15,5.22-5.15,9.06v281.75c0,5.31,3.92,9.81,9.18,10.54l289.4,40.08c-18.27-19.97-36.62-45.48-49.9-77.37-29.16-70.02-4.73-100.5-35.08-138.76Z"/>
            <path class="cls-25" d="M1615.49,2762.85c-8.66,38.87-28.86,151.01-6.32,271.52,1.68,8.97,8.88,15.89,17.89,17.33l77.89,12.44s.78-73.74,38.2-78.58c37.42-4.84,72.5,30.24,74.84,91.05,0,0,81.07,10.91,203.46-17.15,0,0,16.37-3.51,23.39-22.02l-5.53-84.81c-.45-6.96-3.68-13.45-8.96-18.01l-72.04-62.25s-65.48-92.77-87.31-110.7c0,0-11.69-18.71-106.02-21.05-64.96-1.61-109.69,2.69-131.25,5.53-9,1.18-16.27,7.84-18.24,16.7Z"/>
            <path class="cls-42" d="M2035.17,2940.17l-3.58,3.92c1.56,43.65,11.02,59.09-68.99,67.32-80.01,8.23-77.56-58.97-77.56-58.97l-104.93-45.76-87.62-137.98c-17.39-14.01-47.78-17.84-68.38-18.73-4.27,3.02-7.41,7.54-8.6,12.89-8.66,38.87-28.86,151.01-6.32,271.52,1.68,8.97,8.88,15.89,17.89,17.33l77.89,12.44s.78-73.74,38.2-78.58c37.42-4.84,72.5,30.24,74.84,91.05,0,0,81.07,10.91,203.46-17.15,0,0,16.37-3.51,23.39-22.02l-5.53-84.81c-.29-4.48-1.75-8.76-4.14-12.46Z"/>
            <path class="cls-52" d="M1779.03,2886.54c2.84,4.66,8.14,7.23,13.56,6.56l166.15-20.37-.43-.37s-54.34-76.98-80.52-104.24l-153.21,9.22c-5.28,.32-8.32,6.14-5.57,10.65l60.01,98.55Z"/>
            <path class="cls-4" d="M1877.96,2834.8c-45.24-17.79-82.83,3.29-113.94-21.58-11.97-9.57-19.1-22.85-23.31-36.85l-16.13,.97c-5.28,.32-8.32,6.14-5.57,10.65l60.01,98.55c2.84,4.66,8.14,7.23,13.56,6.56l137.87-16.9c-18.11-23.53-36.75-35.21-52.5-41.4Z"/>
            <path class="cls-37" d="M2024.8,2951.42c-.17-1.51-1.44-2.66-2.96-2.64-41.4,.36-93.46,9.07-110.7,12.16-3.25,.58-5.39,3.75-4.64,6.97,3.37,14.38,8.96,24.11,13.08,29.76,2.8,3.84,7.1,6.26,11.84,6.63,13.03,1.02,41.92,2.76,55.93-.57,12.46-2.97,24.39-8.88,30.8-12.39,3.73-2.04,6.37-5.67,7.02-9.88,1.57-10.16,.29-24.24-.37-30.04Z"/>
            <path class="cls-57" d="M1822.21,2955.41c-1.16-2.36-.05-5.21,2.42-6.12,3.66-1.35,8.67-2.91,11.58-2.57,3.82,.45,36.09,8.83,50.86,12.7,4.56,1.19,7.71,5.42,7.4,10.12-.66,10.05-4.46,25.97-21.71,27.75-23.96,2.48-39.1-18.65-50.55-41.88Z"/>
            <path class="cls-62" d="M1977.41,3014.83c-62.81,8.77-75.55-12.78-75.55-12.78-14.86,2.21-35.99-.7-47.96-2.79-4.56-.79-8.99,1.37-11.54,5.24-1.91,2.89-5.38,5.82-11.7,6.9-10.31,1.78-27.86-2.15-36.45-4.36,12.51,17.17,21.27,39.43,22.42,69.47,0,0,82.44,11.01,204.83-17.06,0,0,16.37-3.51,23.39-22.02l-3.61-55.31c-6.41,9.81-23.19,27.03-63.83,32.7Z"/>
            <path class="cls-39" d="M1875.26,3025.74c-6.95-.67-12.88,4.89-12.72,11.87,.33,14.92-1.2,30.53-2.54,41.08,35.56,.08,91.8-3.26,161.46-19.23,0,0,16.37-3.51,23.39-22.02l-2.1-32.23c-50.18,28.45-134.65,23.72-167.48,20.54Z"/>
            <path class="cls-38" d="M1642.28,2785.4l22.56,5.46c7.38,1.79,13.83,6.24,18.12,12.5l55.86,81.48c3.81,5.56-1.11,12.93-7.71,11.53l-96.79-20.48c-3.9-.82-6.75-4.17-6.92-8.15-.6-13.96-1.25-47.06,4.22-75.44,.95-4.92,5.78-8.09,10.65-6.91Z"/>
          </g>
        </g>
      </g>
    </g>
  </g>
</svg>